<?xml version="1.0" encoding="utf-8"?>
<!-- Generator: Adobe Illustrator 19.0.0, SVG Export Plug-In . SVG Version: 6.00 Build 0)  -->
<svg version="1.1" id="Layer_1" xmlns="http://www.w3.org/2000/svg" xmlns:xlink="http://www.w3.org/1999/xlink" x="0px" y="0px"
	 viewBox="-108.6 342.1 216.5 141" enable-background="new -108.6 342.1 216.5 141" xml:space="preserve">
<g enable-background="new    ">
	<path fill="none" stroke="#000000" d="M-37.2,342.8c2-0.4,3.2,0.3,3.6,2.1c0.4,1.8-0.4,2.9-2.4,3.3c-14.8,3.2-26.9,8.3-36.3,15.3
		c-9.4,7-14.1,14.5-14.1,22.5c0,4.8,1.7,8.6,5.1,11.4c3.4,2.8,13.9,6.2,31.5,10.2c12.4,3.2,21.5,7.8,27.3,13.8
		c5.8,6,8.7,13.8,8.7,23.4c0,10.8-3.8,19.8-11.4,27c-7.6,7.2-17.4,10.8-29.4,10.8c-15.6,0-28.4-5.5-38.4-16.5
		c-10-11-15-25.1-15-42.3c0-20.8,6.3-38.2,18.9-52.2C-76.5,357.6-59.2,348-37.2,342.8z M83.4,342.8c2-0.4,3.3,0.3,3.9,2.1
		c0.6,1.8-0.1,2.9-2.1,3.3c-14.8,3.2-26.9,8.3-36.3,15.3c-9.4,7-14.1,14.5-14.1,22.5c0,4.8,1.6,8.6,4.8,11.4
		c3.2,2.8,13.6,6.2,31.2,10.2c12.8,3.2,22.1,7.8,27.9,13.8c5.8,6,8.7,13.8,8.7,23.4c0,10.8-3.8,19.8-11.4,27
		c-7.6,7.2-17.4,10.8-29.4,10.8c-15.6,0-28.4-5.7-38.4-17.1c-10-11.4-15-25.9-15-43.5c0-20.4,6.2-37.4,18.6-51
		C44.2,357.4,61.4,348,83.4,342.8z"/>
</g>
</svg>
