<?xml version="1.0" encoding="utf-8"?>
<!-- Generator: Adobe Illustrator 19.0.0, SVG Export Plug-In . SVG Version: 6.00 Build 0)  -->
<svg version="1.1" id="Layer_1" xmlns="http://www.w3.org/2000/svg" xmlns:xlink="http://www.w3.org/1999/xlink" x="0px" y="0px"
	 viewBox="-46.4 368.5 216.6 141.4" enable-background="new -46.4 368.5 216.6 141.4" xml:space="preserve">
<g enable-background="new    ">
	<path fill="none" stroke="#000000" d="M29.7,397.6c12.4,13.6,18.6,30.6,18.6,51c0,17.6-5,32.1-15,43.5
		c-10,11.4-22.8,17.1-38.4,17.1c-12,0-21.8-3.6-29.4-10.8c-7.6-7.2-11.4-16.2-11.4-27c0-9.6,2.9-17.4,8.7-23.4
		c5.8-6,15.1-10.6,27.9-13.8c17.6-4,28-7.4,31.2-10.2c3.2-2.8,4.8-6.6,4.8-11.4c0-8-4.7-15.5-14.1-22.5c-9.4-7-21.5-12.1-36.3-15.3
		c-2-0.4-2.7-1.5-2.1-3.3c0.6-1.8,1.9-2.5,3.9-2.1C0.1,374.6,17.3,384,29.7,397.6z M150.6,398.2c12.6,14,18.9,31.4,18.9,52.2
		c0,17.2-5,31.3-15,42.3c-10,11-22.8,16.5-38.4,16.5c-12,0-21.8-3.6-29.4-10.8c-7.6-7.2-11.4-16.2-11.4-27c0-9.6,2.9-17.4,8.7-23.4
		c5.8-6,14.9-10.6,27.3-13.8c17.6-4,28.1-7.4,31.5-10.2c3.4-2.8,5.1-6.6,5.1-11.4c0-8-4.7-15.5-14.1-22.5
		c-9.4-7-21.5-12.1-36.3-15.3c-2-0.4-2.8-1.5-2.4-3.3c0.4-1.8,1.6-2.5,3.6-2.1C120.7,374.6,138,384.2,150.6,398.2z"/>
</g>
</svg>
