<?xml version="1.0" encoding="utf-8"?>
<!-- Generator: Adobe Illustrator 22.1.0, SVG Export Plug-In . SVG Version: 6.00 Build 0)  -->
<svg version="1.1" id="Layer_1" focusable="false" xmlns="http://www.w3.org/2000/svg" xmlns:xlink="http://www.w3.org/1999/xlink"
	 x="0px" y="0px" viewBox="0 0 558 393" style="enable-background:new 0 0 558 393;" xml:space="preserve">
<path d="M541.7,65.1c-6.3-23.7-24.8-42.3-48.3-48.6C450.8,5,280,5,280,5S109.2,5,66.6,16.5c-23.5,6.3-42,24.9-48.3,48.6
	C6.9,107.9,6.9,197.4,6.9,197.4s0,89.4,11.4,132.3c6.3,23.6,24.8,41.5,48.3,47.8C109.2,389,280,389,280,389s170.8,0,213.4-11.5
	c23.5-6.3,42-24.2,48.3-47.8c11.4-42.9,11.4-132.3,11.4-132.3S553.1,107.9,541.7,65.1z M224.1,278.6V116.2l142.7,81.2L224.1,278.6
	L224.1,278.6z"/>
</svg>
